<svg xmlns="http://www.w3.org/2000/svg" version="1.1" xmlns:xlink="http://www.w3.org/1999/xlink" viewBox="0 0 200 200"><rect width="200" height="200" fill="url('#gradient')"></rect><defs><linearGradient id="gradient" gradientTransform="rotate(45 0.5 0.5)"><stop offset="0%" stop-color="#472027"></stop><stop offset="100%" stop-color="#192025"></stop></linearGradient></defs><g><g fill="#f9bb70" transform="matrix(2.975783015821763,0,0,2.975783015821763,6.80999372276446,120.86195720100464)" stroke="#d05c21" stroke-width="0"><path d="M4.50-14.22L4.50-2.64L10.47-2.64L10.47 0L1.07 0L1.07-14.22L4.50-14.22ZM11.36-4.82L11.35-5.38Q11.35-6.96 11.96-8.20Q12.58-9.43 13.73-10.10Q14.88-10.76 16.44-10.76L16.44-10.76Q18.81-10.76 20.18-9.29Q21.54-7.82 21.54-5.29L21.54-5.29L21.54-5.18Q21.54-2.71 20.17-1.25Q18.80 0.20 16.46 0.20L16.46 0.20Q14.20 0.20 12.83-1.16Q11.46-2.51 11.36-4.82L11.36-4.82ZM14.65-5.77L14.64-5.18Q14.64-3.71 15.10-3.03Q15.56-2.34 16.46-2.34L16.46-2.34Q18.21-2.34 18.25-5.05L18.25-5.05L18.25-5.38Q18.25-8.22 16.44-8.22L16.44-8.22Q14.79-8.22 14.65-5.77L14.65-5.77ZM29.38 0L29.29-1.14Q28.24 0.20 26.46 0.20L26.46 0.20Q24.73 0.20 23.83-0.82Q22.94-1.83 22.94-3.72L22.94-3.72L22.94-10.57L26.23-10.57L26.23-3.70Q26.23-2.34 27.55-2.34L27.55-2.34Q28.68-2.34 29.16-3.15L29.16-3.15L29.16-10.57L32.47-10.57L32.47 0L29.38 0ZM36.85-10.57L38.49-3.92L40.16-10.57L43.62-10.57L40.18 0L36.82 0L33.37-10.57L36.85-10.57ZM51.05-10.64L51.00-7.59L49.91-7.67Q48.36-7.67 47.92-6.69L47.92-6.69L47.92 0L44.63 0L44.63-10.57L47.71-10.57L47.82-9.21Q48.65-10.76 50.14-10.76L50.14-10.76Q50.66-10.76 51.05-10.64L51.05-10.64ZM57.11 0.20L57.11 0.20Q54.68 0.20 53.17-1.25Q51.67-2.71 51.67-5.03L51.67-5.03L51.67-5.30Q51.67-6.92 52.27-8.16Q52.87-9.40 54.02-10.08Q55.18-10.76 56.76-10.76L56.76-10.76Q58.98-10.76 60.27-9.38Q61.56-8.00 61.56-5.53L61.56-5.53L61.56-4.25L55.02-4.25Q55.20-3.36 55.79-2.85Q56.39-2.34 57.33-2.34L57.33-2.34Q58.90-2.34 59.78-3.44L59.78-3.44L61.28-1.66Q60.66-0.81 59.54-0.31Q58.41 0.20 57.11 0.20ZM56.74-8.22L56.74-8.22Q55.29-8.22 55.02-6.31L55.02-6.31L58.34-6.31L58.34-6.56Q58.36-7.35 57.94-7.79Q57.52-8.22 56.74-8.22Z"></path></g></g></svg>